
<svg width="74px" height="100px" viewBox="0 0 74 100" version="1.1" xmlns="http://www.w3.org/2000/svg" xmlns:xlink="http://www.w3.org/1999/xlink">
    <desc>Created with Sketch.</desc>
    <defs></defs>
    <g id="Page-1" stroke="none" stroke-width="1" fill="none" fill-rule="evenodd">
        <g id="noun_map-pin-house_1661278" fill="#FEFCF7" fill-rule="nonzero">
            <path d="M37,0 C17.016,0 0.816,16.201 0.816,36.185 C0.816,64.987 37,100 37,100 C37,100 73.184,64.987 73.184,36.185 C73.184,16.201 56.984,0 37,0 Z M37,62.588 C22.417,62.588 10.596,50.767 10.596,36.185 C10.596,21.602 22.417,9.78 37,9.78 C51.582,9.78 63.404,21.601 63.404,36.184 C63.404,50.767 51.582,62.588 37,62.588 Z M37,17.069 L30.937,23.193 L30.937,19.668 L24.008,19.668 L24.008,30.193 L19.852,34.391 L24.874,34.391 L24.874,51.713 L49.124,51.713 L49.124,34.392 L54.147,34.392 L37,17.069 Z M41.956,40.129 L37.991,40.129 L37.991,36.164 L41.956,36.164 L41.956,40.129 Z M36.009,36.164 L36.009,40.129 L32.044,40.129 L32.044,36.164 L36.009,36.164 Z M32.044,42.111 L36.009,42.111 L36.009,46.076 L32.044,46.076 L32.044,42.111 Z M37.991,46.076 L37.991,42.111 L41.956,42.111 L41.956,46.076 L37.991,46.076 Z" id="Shape"></path>
        </g>
    </g>
</svg>