
<svg width="97px" height="95px" viewBox="0 0 97 95" version="1.1" xmlns="http://www.w3.org/2000/svg" xmlns:xlink="http://www.w3.org/1999/xlink">
    <g id="Page-1" stroke="none" stroke-width="1" fill="none" fill-rule="evenodd">
        <g id="noun_comment_272230" fill="#FEFCF7" fill-rule="nonzero">
            <g id="Group">
                <g id="Shape">
                    <path d="M9.7,0 C4.4426,0 0,4.45424509 0,9.72542595 L0,67.2152687 C0,72.4864495 4.4426,76.9406946 9.7,76.9406946 L22.6333333,76.9406946 L22.6333333,93.1497379 C22.6333333,93.8191714 23.0439667,94.4205269 23.6663833,94.6620416 C23.85715,94.7366032 24.0543833,94.7706422 24.25,94.7706422 C24.6962,94.7706422 25.1343167,94.5858591 25.4463333,94.2406065 L41.1312333,76.9406946 L87.3,76.9406946 C92.5574,76.9406946 97,72.4864495 97,67.2152687 L97,9.72542595 C97,4.45424509 92.5574,0 87.3,0 L9.7,0 Z M62.8673167,57.8612258 C62.6490667,58.2777982 62.2626833,58.5792864 61.8051667,58.6895079 C61.6823,58.7170632 61.5578167,58.7316514 61.4333333,58.7316514 C61.0970667,58.7316514 60.7640333,58.6262926 60.4875833,58.4236796 L32.55805,38.2012772 L17.363,54.959807 C16.8181833,55.5562998 15.9177,55.6600377 15.25325,55.2061845 C14.5871833,54.7490894 14.3592333,53.8689384 14.71975,53.1443942 L30.8880333,20.7263077 C31.0998167,20.3000098 31.4878167,19.9904171 31.9485667,19.8769538 C32.4093167,19.7634905 32.8959333,19.8607448 33.2790833,20.1379194 L61.17305,40.3343873 L79.6062833,18.7763598 C80.1397833,18.1506907 81.0564333,18.0242602 81.7402833,18.4878388 C82.4192833,18.9481756 82.6472333,19.8493984 82.2673167,20.5804263 L62.8673167,57.8612258 Z"></path>
                </g>
            </g>
        </g>
    </g>
</svg>