
<svg width="96px" height="96px" viewBox="0 0 96 96" version="1.1" xmlns="http://www.w3.org/2000/svg" xmlns:xlink="http://www.w3.org/1999/xlink">
    <desc>Created with Sketch.</desc>
    <defs></defs>
    <g id="Page-1" stroke="none" stroke-width="1" fill="none" fill-rule="evenodd">
        <g id="noun_social-network_1560895" fill="#FEFCF7" fill-rule="nonzero">
            <path d="M16,96 L80,96 C88.836556,96 96,88.836556 96,80 L96,16 C96,7.163444 88.836556,4.4408921e-16 80,0 L16,0 C7.163444,-4.4408921e-16 8.8817842e-16,7.163444 0,16 L0,80 C8.8817842e-16,88.836556 7.163444,96 16,96 Z M88,80 C88,84.418278 84.418278,88 80,88 L16,88 C11.581722,88 8,84.418278 8,80 L8,52 L28,52 C28.14,52 28.26,51.93 28.4,51.92 C30.2927699,61.2412959 38.4884736,67.9400503 48,67.9400503 C57.5115264,67.9400503 65.7072301,61.2412959 67.6,51.92 C67.74,51.92 67.86,52 68,52 L88,52 L88,80 Z M36,48 C36,41.372583 41.372583,36 48,36 C54.627417,36 60,41.372583 60,48 C60,54.627417 54.627417,60 48,60 C41.372583,60 36,54.627417 36,48 Z M8,16 C8,11.581722 11.581722,8 16,8 L80,8 C84.418278,8 88,11.581722 88,16 L88,44 L68,44 C67.86,44 67.74,44.07 67.6,44.08 C65.7072301,34.7587041 57.5115264,28.0599497 48,28.0599497 C38.4884736,28.0599497 30.2927699,34.7587041 28.4,44.08 C28.26,44.08 28.14,44 28,44 L8,44 L8,16 Z" id="Shape"></path>
            <circle id="Oval" cx="20" cy="24" r="4"></circle>
        </g>
    </g>
</svg>