
<svg width="391px" height="382px" viewBox="0 0 391 382" version="1.1" xmlns="http://www.w3.org/2000/svg" xmlns:xlink="http://www.w3.org/1999/xlink">
    <g id="Page-1" stroke="none" stroke-width="1" fill="none" fill-rule="evenodd">
        <g id="noun_Straight-Razor_781349-Copy" transform="translate(149.000000, 111.000000)" fill="#FEFCF7" fill-rule="nonzero">
            <path d="M86.9601465,71.7729514 C58.1900414,73.9468042 33.1815882,71.3343768 13.0535685,62.3290543 C15.8304246,55.089218 19.1097275,48.3864118 22.0987278,40.7963872 C26.5046282,39.9483273 29.3250297,40.7370901 30.9618898,43.4882503 C35.4358996,33.2768478 42.4656889,17.2409069 48.7753045,4.28729478 C36.987902,-9.396902 30.8301371,12.733211 23.8695737,27.8562008 C20.0554441,36.1264635 13.457759,51.2315522 13.457759,51.2315522 C13.2679458,51.6578198 8.05813049,63.2923519 8.05813049,63.2923519 C8.05813049,63.2923519 3.19444525,77.4140044 0,79.2891343 C5.69663042,82.1544134 7.78569266,72.5762588 10.1125797,69.0822071 C30.6313914,78.6458171 60.2567726,81.6621359 89.3908725,79.1615897 C95.5050921,78.6368666 93.2853937,71.2806738 86.9601465,71.7729514 Z" id="Shape"></path>
        </g>
        <path d="M53.9484378,208.59375 L53.9796878,208.59375 C62.6359378,208.59375 69.8859378,214.78125 69.8859378,223.78125 C69.8859378,233.6875 62.3859378,239.71875 53.3546878,239.71875 C43.8546878,239.71875 37.1046878,232.9375 37.1046878,224.15625 C37.1046878,216.1875 43.1046878,208.59375 53.9484378,208.59375 Z M53.0734378,210.5625 L53.0421878,210.5625 C48.2296878,210.5625 44.1984378,215.25 44.1984378,223.34375 C44.1984378,231.15625 48.0421878,237.71875 54.2609378,237.71875 C58.8546878,237.71875 62.7921878,233.5 62.7921878,225.0625 C62.7921878,215.9375 58.6984378,210.5625 53.0734378,210.5625 Z M96.1390628,232.484375 L97.3812503,233.023438 C96.8890628,234.734375 95.9515628,237.429688 95.3656253,238.601562 C94.4515628,238.789062 91.0531253,239.539062 88.6625003,239.539062 C79.2171878,239.539062 75.1625003,233.5625 75.1625003,228.101562 C75.1625003,221.046875 80.8109378,216.195312 89.3187503,216.195312 C92.2953128,216.195312 94.9906253,216.945312 95.9046878,217.15625 C96.2093753,219.03125 96.5140628,220.601562 96.7250003,222.875 L95.4359378,223.085938 C94.3343753,218.9375 91.4281253,217.742188 88.6390628,217.742188 C83.3187503,217.742188 80.4828128,222.40625 80.4828128,227.421875 C80.4828128,233.75 84.0687503,237.875 89.0375003,237.875 C92.0609378,237.875 94.3109378,236.070312 96.1390628,232.484375 Z M122.595313,232.484375 L123.8375,233.023438 C123.345313,234.734375 122.407813,237.429688 121.821875,238.601562 C120.907813,238.789062 117.509375,239.539062 115.11875,239.539062 C105.673438,239.539062 101.61875,233.5625 101.61875,228.101562 C101.61875,221.046875 107.267188,216.195312 115.775,216.195312 C118.751563,216.195312 121.446875,216.945312 122.360938,217.15625 C122.665625,219.03125 122.970313,220.601562 123.18125,222.875 L121.892188,223.085938 C120.790625,218.9375 117.884375,217.742188 115.095313,217.742188 C109.775,217.742188 106.939063,222.40625 106.939063,227.421875 C106.939063,233.75 110.525,237.875 115.49375,237.875 C118.517188,237.875 120.767188,236.070312 122.595313,232.484375 Z M150.48125,239 L140.45,239 L140.45,237.78125 C142.535938,237.429688 142.676563,237.03125 142.160938,235.578125 C141.809375,234.570312 141.270313,233.09375 140.684375,231.617188 L133.8875,231.617188 C133.489063,232.742188 132.996875,234.007812 132.598438,235.390625 C132.082813,236.960938 132.153125,237.453125 134.707813,237.78125 L134.707813,239 L126.85625,239 L126.903125,237.78125 C129.29375,237.5 129.66875,237.078125 130.864063,234.125 L138.059375,216.640625 L139.864063,216.195312 C142.114063,222.171875 144.29375,228.148438 146.590625,234.007812 C147.7625,237.03125 148.23125,237.5 150.48125,237.78125 L150.48125,239 Z M140.028125,229.789062 L137.403125,222.40625 L137.309375,222.40625 C136.325,224.867188 135.3875,227.351562 134.496875,229.789062 L140.028125,229.789062 Z M183.382813,239 L173,239 L173,237.78125 C175.625,237.5 175.835938,237.195312 175.789063,234.007812 L175.742188,220.976562 L175.554688,220.976562 L167.679688,238.789062 L166.742188,238.789062 L159.476563,221.257812 L159.335938,221.257812 L158.867188,230.234375 C158.726563,233.070312 158.773438,234.664062 158.890625,235.765625 C159.078125,237.265625 159.710938,237.570312 162.078125,237.78125 L162.078125,239 L153.570313,239 L153.570313,237.78125 C155.5625,237.59375 156.242188,236.960938 156.476563,235.765625 C156.6875,234.664062 156.945313,232.929688 157.226563,229.203125 L157.765625,222.640625 C158.070313,218.726562 157.8125,218.210938 154.765625,217.929688 L154.765625,216.710938 L162.007813,216.710938 L168.898438,231.804688 L175.929688,216.710938 L182.9375,216.710938 L182.9375,217.929688 C180.101563,218.210938 179.960938,218.515625 180.03125,221.421875 L180.382813,234.007812 C180.453125,237.195312 180.570313,237.5 183.382813,237.78125 L183.382813,239 Z M188.932813,214.71875 L188.95625,214.71875 C190.714063,214.71875 193.034375,216.265625 193.034375,218.9375 C193.034375,221.960938 190.128125,223.742188 187.385938,224.515625 L186.940625,223.320312 C188.8625,222.453125 189.917188,221.28125 189.917188,219.992188 C189.917188,218.679688 188.932813,217.835938 187.45625,217.554688 C187.292188,217.53125 186.940625,217.15625 186.940625,216.335938 C186.940625,215.398438 187.971875,214.71875 188.932813,214.71875 Z M212.084375,222.078125 L210.889063,222.335938 C210.209375,220.179688 208.803125,217.601562 205.990625,217.601562 C203.928125,217.601562 202.521875,219.054688 202.521875,221 C202.521875,222.875 203.7875,223.953125 206.928125,225.453125 C210.63125,227.1875 213.115625,229.109375 213.115625,232.507812 C213.115625,236.445312 209.69375,239.539062 204.607813,239.539062 C203.342188,239.539062 202.1,239.351562 201.06875,239.023438 C200.084375,238.71875 199.38125,238.460938 198.959375,238.25 C198.63125,237.429688 198.1625,234.429688 197.928125,232.34375 L199.146875,231.96875 C199.803125,234.148438 201.959375,238.109375 205.2875,238.109375 C207.44375,238.109375 208.803125,236.679688 208.803125,234.453125 C208.803125,232.4375 207.232813,231.171875 204.607813,229.859375 C200.951563,228.078125 198.5375,226.226562 198.5375,222.945312 C198.5375,219.125 201.654688,216.195312 206.529688,216.195312 C208.85,216.195312 210.889063,216.921875 211.451563,217.109375 C211.56875,218.351562 211.826563,219.875 212.084375,222.078125 Z M250.325,238.15625 L250.114062,239.304688 C249.95,239.304688 249.575,239.28125 249.176562,239.28125 C244.723437,239.070312 243.364062,238.085938 241.957812,235.929688 C241.04375,234.523438 240.129687,232.695312 239.098437,230.867188 C238.5125,229.859375 237.85625,229.4375 236.73125,229.4375 L236.051562,229.4375 L236.051562,234.382812 C236.051562,237.195312 236.403125,237.5 239.051562,237.78125 L239.051562,239 L228.48125,239 L228.48125,237.78125 C231.082812,237.5 231.528125,237.195312 231.528125,234.382812 L231.528125,221.28125 C231.528125,218.539062 231.176562,218.140625 228.621875,217.929688 L228.621875,216.710938 L238.348437,216.710938 C241.5125,216.710938 243.29375,217.039062 244.723437,218 C246.082812,218.9375 247.04375,220.460938 247.04375,222.570312 C247.04375,225.617188 245.004687,227.257812 242.684375,228.148438 C243.2,229.15625 244.489062,231.429688 245.54375,233 C246.785937,234.898438 247.559375,236.023438 248.239062,236.75 C248.965625,237.523438 249.504687,237.875 250.325,238.15625 Z M236.051562,228.078125 L236.91875,228.078125 C238.442187,228.078125 239.684375,227.84375 240.457812,227.164062 C241.653125,226.132812 242.145312,224.796875 242.145312,223.0625 C242.145312,219.40625 239.989062,218.070312 237.996875,218.070312 C237.082812,218.070312 236.614062,218.234375 236.35625,218.445312 C236.121875,218.65625 236.051562,219.03125 236.051562,219.710938 L236.051562,228.078125 Z M276.828125,239 L266.796875,239 L266.796875,237.78125 C268.882812,237.429688 269.023437,237.03125 268.507812,235.578125 C268.15625,234.570312 267.617187,233.09375 267.03125,231.617188 L260.234375,231.617188 C259.835937,232.742188 259.34375,234.007812 258.945312,235.390625 C258.429687,236.960938 258.5,237.453125 261.054687,237.78125 L261.054687,239 L253.203125,239 L253.25,237.78125 C255.640625,237.5 256.015625,237.078125 257.210937,234.125 L264.40625,216.640625 L266.210937,216.195312 C268.460937,222.171875 270.640625,228.148438 272.9375,234.007812 C274.109375,237.03125 274.578125,237.5 276.828125,237.78125 L276.828125,239 Z M266.375,229.789062 L263.75,222.40625 L263.65625,222.40625 C262.671875,224.867188 261.734375,227.351562 260.84375,229.789062 L266.375,229.789062 Z M299.698437,232.25 L300.823437,232.554688 C300.542187,234.3125 299.932812,237.804688 299.557812,239 L280.7375,239 L280.339062,238.390625 C285.003125,231.59375 289.339062,225.242188 293.95625,218.28125 L289.26875,218.28125 C285.729687,218.28125 285.05,218.679688 284.464062,219.546875 C284.042187,220.15625 283.503125,221.1875 283.104687,222.828125 L281.932812,222.78125 C282.05,220.0625 282.2375,217.625 282.354687,215.84375 L283.245312,215.84375 C283.784375,216.664062 284.1125,216.710938 285.2375,216.710938 L299.792187,216.710938 L300.073437,217.226562 C295.55,223.90625 291.14375,230.421875 286.714062,237.21875 C287.885937,237.359375 288.870312,237.429688 291.120312,237.429688 C293.909375,237.429688 296.4875,237.195312 297.495312,236.257812 C298.3625,235.484375 298.948437,234.429688 299.698437,232.25 Z M317.107812,216.195312 L317.13125,216.195312 C323.623437,216.195312 329.060937,220.835938 329.060937,227.585938 C329.060937,235.015625 323.435937,239.539062 316.6625,239.539062 C309.5375,239.539062 304.475,234.453125 304.475,227.867188 C304.475,221.890625 308.975,216.195312 317.107812,216.195312 Z M316.451562,217.671875 L316.428125,217.671875 C312.81875,217.671875 309.795312,221.1875 309.795312,227.257812 C309.795312,233.117188 312.678125,238.039062 317.342187,238.039062 C320.7875,238.039062 323.740625,234.875 323.740625,228.546875 C323.740625,221.703125 320.670312,217.671875 316.451562,217.671875 Z M355.048437,238.15625 L354.8375,239.304688 C354.673437,239.304688 354.298437,239.28125 353.9,239.28125 C349.446875,239.070312 348.0875,238.085938 346.68125,235.929688 C345.767187,234.523438 344.853125,232.695312 343.821875,230.867188 C343.235937,229.859375 342.579687,229.4375 341.454687,229.4375 L340.775,229.4375 L340.775,234.382812 C340.775,237.195312 341.126562,237.5 343.775,237.78125 L343.775,239 L333.204687,239 L333.204687,237.78125 C335.80625,237.5 336.251562,237.195312 336.251562,234.382812 L336.251562,221.28125 C336.251562,218.539062 335.9,218.140625 333.345312,217.929688 L333.345312,216.710938 L343.071875,216.710938 C346.235937,216.710938 348.017187,217.039062 349.446875,218 C350.80625,218.9375 351.767187,220.460938 351.767187,222.570312 C351.767187,225.617188 349.728125,227.257812 347.407812,228.148438 C347.923437,229.15625 349.2125,231.429688 350.267187,233 C351.509375,234.898438 352.282812,236.023438 352.9625,236.75 C353.689062,237.523438 354.228125,237.875 355.048437,238.15625 Z M340.775,228.078125 L341.642187,228.078125 C343.165625,228.078125 344.407812,227.84375 345.18125,227.164062 C346.376562,226.132812 346.86875,224.796875 346.86875,223.0625 C346.86875,219.40625 344.7125,218.070312 342.720312,218.070312 C341.80625,218.070312 341.3375,218.234375 341.079687,218.445312 C340.845312,218.65625 340.775,219.03125 340.775,219.710938 L340.775,228.078125 Z" id="OCCAM’S-RAZOR-Copy" fill="#FEFCF7"></path>
        <g id="Group-4" transform="translate(1.000000, 1.000000)" stroke="#FEFCF7">
            <circle id="oval2" cx="190" cy="190" r="190"></circle>
            <circle id="oval1" cx="199" cy="190" r="190"></circle>
        </g>
    </g>
</svg>