
<svg width="122px" height="100px" viewBox="0 0 122 100" version="1.1" xmlns="http://www.w3.org/2000/svg" xmlns:xlink="http://www.w3.org/1999/xlink">
    <desc>Created with Sketch.</desc>
    <defs></defs>
    <g id="Page-1" stroke="none" stroke-width="1" fill="none" fill-rule="evenodd">
        <g id="noun_Telephone_8190" fill="#FEFCF7" fill-rule="nonzero">
            <g id="Group">
                <path d="M119.281687,18.5037975 C113.623937,7.07468354 84.599375,0 60.9529792,0 C37.3065833,0 8.28202083,7.07468354 2.630625,18.4974684 C-1.07766667,25.9620253 0.279583333,35.0848101 3.44014583,39.8822785 C6.60070833,44.6721519 11.1731667,47.1012658 17.0329792,47.1012658 C17.9162083,47.1012658 18.8617083,47.0455696 19.8732917,46.9202532 C26.6697083,46.0822785 33.53475,44.7746835 35.4816667,44.3924051 C40.0465,43.4936709 43.8691667,40.6329114 46.2189375,36.4936709 C49.0007917,35.8493671 54.0027917,34.9924051 60.9529792,34.9924051 C67.9107917,34.9924051 72.9166042,35.8493671 75.6844792,36.4911392 C78.0380625,40.6316456 81.8581875,43.4936709 86.429375,44.3962025 C88.3724792,44.7746835 95.23625,46.0822785 102.025042,46.9177215 C103.042979,47.0455696 103.98975,47.1012658 104.872979,47.1012658 C110.731521,47.1012658 115.302708,44.6721519 118.465812,39.878481 C121.626375,35.0848101 122.983625,25.9620253 119.281687,18.5037975 Z M107.079146,32.4329114 C106.583521,33.1886076 106.356042,33.5329114 104.875521,33.5329114 C104.514604,33.5329114 104.127,33.5063291 103.708896,33.4544304 C97.3598125,32.6734177 90.89,31.4392405 89.067625,31.0835443 C88.2263333,30.9189873 87.5172083,30.0924051 87.1168958,28.8151899 L86.1332708,25.6746835 L83.0426042,24.5 C82.2165625,24.1848101 74.5585208,21.4253165 60.95425,21.4253165 C47.3499792,21.4253165 39.6944792,24.1848101 38.864625,24.5 L35.7752292,25.6746835 L34.7916042,28.8151899 C34.3900208,30.0911392 33.679625,30.9189873 32.8459583,31.0797468 C31.0172292,31.4379747 24.5525,32.6734177 18.1945208,33.456962 C17.7815,33.5063291 17.3938958,33.5329114 17.0329792,33.5329114 C15.5511875,33.5329114 15.3097292,33.1658228 14.8420625,32.4582278 C14.251125,31.4607595 13.3526458,27.5075949 14.7708958,24.6341772 C17.0088333,21.4240506 35.967125,13.5696203 60.95425,13.5696203 C85.941375,13.5696203 104.899667,21.4253165 107.068979,24.5113924 C108.554583,27.5075949 107.656104,31.4607595 107.079146,32.4329114 Z" id="Shape"></path>
                <path d="M76.2944792,47.7696203 C72.6687917,43.3240506 67.1393958,40.4734177 60.9529792,40.4734177 C54.7640208,40.4734177 49.2371667,43.3240506 45.61275,47.7696203 C35.5846042,49.578481 27.6469792,53.2734177 22.0222708,58.9075949 C15.8701667,65.078481 12.7820417,73.0075949 12.8443125,82.7329114 C12.8443125,91.1455696 18.7524167,99.6341772 31.9525625,99.6341772 L89.9546667,99.6341772 C103.153542,99.6341772 109.062917,91.1468354 109.062917,82.4835443 C109.125187,73.0075949 106.034521,65.078481 99.8824167,58.9075949 C94.2577083,53.2734177 86.3213542,49.578481 76.2944792,47.7696203 Z M60.9529792,54.0417722 C64.3422917,54.0417722 67.0961875,56.7860759 67.0961875,60.1607595 C67.0961875,63.535443 64.3410208,66.2797468 60.9529792,66.2797468 C57.5649375,66.2797468 54.8097708,63.535443 54.8097708,60.1607595 C54.8097708,56.7860759 57.5662083,54.0417722 60.9529792,54.0417722 Z M95.4408542,82.7329114 C95.4408542,83.8139241 95.4408542,86.0658228 89.9559375,86.0658228 L31.9525625,86.0658228 C26.466375,86.0658228 26.466375,83.8139241 26.466375,82.7329114 L26.466375,82.3962025 C26.451125,80.2620253 26.4104583,73.7632911 31.6869583,68.4746835 C34.0723125,66.078481 37.354875,64.1974684 41.3897708,62.8126582 C42.6961875,72.4126582 50.957875,79.8468354 60.95425,79.8468354 C70.9480833,79.8468354 79.2135833,72.4126582 80.5187292,62.8126582 C84.5548958,64.1974684 87.8349167,66.078481 90.2215417,68.4746835 C95.4980417,73.7632911 95.4561042,80.2620253 95.4408542,82.3962025 L95.4408542,82.7329114 Z" id="Shape"></path>
            </g>
        </g>
    </g>
</svg>