
<svg width="84px" height="95px" viewBox="0 0 84 95" version="1.1" xmlns="http://www.w3.org/2000/svg" xmlns:xlink="http://www.w3.org/1999/xlink">
    <g id="Page-1" stroke="none" stroke-width="1" fill="none" fill-rule="evenodd">
        <g id="noun_Straight-Razor_781349-Copy-4" transform="translate(61.033628, 37.437386) rotate(35.000000) translate(-61.033628, -37.437386) translate(14.533628, -2.562614)" fill="#FEFCF7" fill-rule="nonzero">
            <path d="M86.9601465,71.7729514 C58.1900414,73.9468042 33.1815882,71.3343768 13.0535685,62.3290543 C15.8304246,55.089218 19.1097275,48.3864118 22.0987278,40.7963872 C26.5046282,39.9483273 29.3250297,40.7370901 30.9618898,43.4882503 C35.4358996,33.2768478 42.4656889,17.2409069 48.7753045,4.28729478 C36.987902,-9.396902 30.8301371,12.733211 23.8695737,27.8562008 C20.0554441,36.1264635 13.457759,51.2315522 13.457759,51.2315522 C13.2679458,51.6578198 8.05813049,63.2923519 8.05813049,63.2923519 C8.05813049,63.2923519 3.19444525,77.4140044 0,79.2891343 C5.69663042,82.1544134 7.78569266,72.5762588 10.1125797,69.0822071 C30.6313914,78.6458171 60.2567726,81.6621359 89.3908725,79.1615897 C95.5050921,78.6368666 93.2853937,71.2806738 86.9601465,71.7729514 Z" id="Shape"></path>
        </g>
    </g>
</svg>