
<svg width="153px" height="280px" viewBox="0 0 153 280" version="1.1" xmlns="http://www.w3.org/2000/svg" xmlns:xlink="http://www.w3.org/1999/xlink">
    <defs>
        <path d="M0.227381035,0.674262969 C33.3513771,7.98830467 63.0162069,20.224908 87.1925587,36.0553032 C127.819068,62.6570709 152.947086,99.4070709 152.947086,140 C152.947086,180.592929 127.819068,217.342929 87.1925587,243.944697 C63.0162069,259.775092 33.3513771,272.011695 0.227381035,279.325737 M0.227381035,279.325737 C24.5475696,271.678453 46.4422284,260.550846 64.8048731,246.773124 C101.223866,219.447499 123.749482,181.697499 123.749482,140 C123.749482,98.3025014 101.223866,60.5525014 64.8048731,33.226876 C46.4422284,19.4491543 24.5475696,8.32154695 0.227381035,0.674262969" id="path-1"></path>
        <filter x="-1.3%" y="-0.7%" width="102.6%" height="101.4%" filterUnits="objectBoundingBox" id="filter-2">
            <feGaussianBlur stdDeviation="0.5" in="SourceAlpha" result="shadowBlurInner1"></feGaussianBlur>
            <feOffset dx="-3" dy="0" in="shadowBlurInner1" result="shadowOffsetInner1"></feOffset>
            <feComposite in="shadowOffsetInner1" in2="SourceAlpha" operator="arithmetic" k2="-1" k3="1" result="shadowInnerInner1"></feComposite>
            <feColorMatrix values="0 0 0 0 0   0 0 0 0 0   0 0 0 0 0  0 0 0 0.5 0" type="matrix" in="shadowInnerInner1"></feColorMatrix>
        </filter>
    </defs>
    <g id="Page-1" stroke="none" stroke-width="1" fill="none" fill-rule="evenodd" opacity="0.528683036">
        <g id="Combined-Shape-Copy-2" transform="translate(76.587234, 140.000000) scale(-1, 1) translate(-76.587234, -140.000000) ">
            <use fill="#FFFDFD" fill-rule="evenodd" xlink:href="#path-1"></use>
            <use fill="black" fill-opacity="1" filter="url(#filter-2)" xlink:href="#path-1"></use>
        </g>
    </g>
</svg>