
<svg width="99px" height="100px" viewBox="0 0 99 100" version="1.1" xmlns="http://www.w3.org/2000/svg" xmlns:xlink="http://www.w3.org/1999/xlink">
    <desc>Created with Sketch.</desc>
    <defs></defs>
    <g id="Page-1" stroke="none" stroke-width="1" fill="none" fill-rule="evenodd">
        <g id="noun_Time_1451333" transform="translate(-2.000000, 0.000000)" fill="#FEFCF7" fill-rule="nonzero">
            <g id="Group">
                <path d="M51.308,0.403225806 C27.5528,0.403225806 7.0296,17.2580645 2.5048,40.5645161 C1.8584,43.8709677 4.04,47.0967742 7.3528,47.7419355 C10.6656,48.3870968 13.8976,46.2096774 14.544,42.9032258 C17.9376,25.4032258 33.3704,12.6612903 51.308,12.6612903 C71.9928,12.6612903 88.7992,29.4354839 88.7992,50.0806452 C88.7992,70.7258065 71.9928,87.5 51.308,87.5 C47.0256,87.5 42.824,86.7741935 38.8648,85.4032258 C35.7136,84.2741935 32.1584,85.9677419 31.0272,89.1129032 C29.896,92.2580645 31.5928,95.8064516 34.744,96.9354839 C40.0768,98.7903226 45.652,99.7580645 51.308,99.7580645 C78.6992,99.7580645 101,77.5 101,50.1612903 C101,22.8225806 78.6992,0.403225806 51.308,0.403225806 Z" id="Shape"></path>
                <path d="M58.2568,54.5967742 L74.9824,41.6129032 L73.6088,38.3870968 L52.6008,41.7741935 C52.1968,41.6935484 51.7928,41.6129032 51.308,41.6129032 C46.7024,41.6129032 42.9856,45.3225806 42.9856,49.9193548 C42.9856,54.516129 46.7024,58.2258065 51.308,58.2258065 C54.2168,58.3064516 56.7216,56.8548387 58.2568,54.5967742 Z" id="Shape"></path>
                <ellipse id="Oval" cx="19.9576" cy="80.2419355" rx="6.06" ry="6.0483871"></ellipse>
                <ellipse id="Oval" transform="translate(9.057034, 60.663871) rotate(-59.935332) translate(-9.057034, -60.663871) " cx="9.0570336" cy="60.663871" rx="6.06027648" ry="6.04866305"></ellipse>
            </g>
        </g>
    </g>
</svg>