
<svg width="98px" height="98px" viewBox="0 0 98 98" version="1.1" xmlns="http://www.w3.org/2000/svg" xmlns:xlink="http://www.w3.org/1999/xlink">
    <g id="Page-1" stroke="none" stroke-width="1" fill="none" fill-rule="evenodd">
        <g id="Group-3" transform="translate(1.000000, 1.000000)" fill-rule="nonzero">
            <g id="vklogo-copy-2">
                <path d="M27.6912607,0 C54.5712607,0 40.680993,0 67.560993,0 C94.440993,0 96,6.4 96,33.28 C96,60.16 96,35.84 96,62.72 C96,89.6 94.440993,96 67.560993,96 C40.680993,96 54.5712607,96 27.6912607,96 C0.8112607,96 0,89.6 0,62.72 C0,35.84 0,48.2901645 0,33.28 C0,6.4 0.8112607,0 27.6912607,0 Z" id="Shape" stroke="#FEFCF7" fill="#FEFCF7"></path>
                <path d="M78.5314126,33.5731106 C78.9762978,32.089886 78.5314131,31 76.4140466,31 L69.4124215,31 C67.6321388,31 66.8114033,31.9415018 66.3662705,32.9796973 C66.3662705,32.9796973 62.8057051,41.6564687 57.7616943,47.2925987 C56.1298301,48.9240841 55.3879839,49.4431818 54.4978423,49.4431818 C54.0528335,49.4431818 53.408585,48.9240841 53.408585,47.4409829 L53.408585,33.5731106 C53.408585,31.793241 52.8919351,31 51.4082427,31 L40.405689,31 C39.2931667,31 38.6240869,31.8260781 38.6240869,32.6089837 C38.6240869,34.2962674 41.1459689,34.6853747 41.4059212,39.4316934 L41.4059212,49.7399501 C41.4059212,52 40.9976738,52.4097545 40.1075324,52.4097545 C37.7339456,52.4097545 31.9601891,43.6942205 28.535818,33.7213713 C27.8647238,31.7829949 27.1916267,31 25.4022067,31 L18.4005816,31 C16.4001173,31 16,31.9415018 16,32.9796973 C16,34.8337589 18.3737103,44.029628 27.0523726,56.191823 C32.8381063,64.497634 40.989825,69 48.4075463,69 C52.8581297,69 53.408707,68 53.408707,66.2775035 L53.408707,60 C53.408707,58 53.8303289,57.6008555 55.2396885,57.6008555 C56.2781255,57.6008555 58.0584082,58.119953 62.2124009,62.124598 C66.9596982,66.870793 67.7423529,69 70.4126537,69 L77.4142788,69 C79.4147431,69 80.4149752,68 79.8379568,66.026556 C79.2065257,64.0597055 76.9399477,61.2060675 73.9324106,57.8233085 C72.3004228,55.895178 69.8526267,53.818787 69.1107805,52.7803445 C68.072344,51.4456275 68.3690578,50.8522145 69.1107805,49.6657581 C69.1107805,49.6657581 77.6412709,37.6518239 78.5314126,33.5731106 Z" id="Shape" fill="#000000"></path>
            </g>
        </g>
    </g>
</svg>